<svg aria-hidden="true" style="position: absolute; width: 0; height: 0; overflow: hidden;" version="1.1" xmlns="http://www.w3.org/2000/svg" xmlns:xlink="http://www.w3.org/1999/xlink">
<defs>
<symbol id="icon-comment" viewBox="0 0 32 32">
<path d="M7.999 29.073l8.116-5.072h10.551c1.473 0 2.667-1.194 2.667-2.667v-16c0-1.473-1.194-2.667-2.667-2.667h-21.333c-1.473 0-2.667 1.194-2.667 2.667v16c0 1.473 1.194 2.667 2.667 2.667h2.667v5.072zM15.35 21.334l-4.684 2.928v-2.928h-5.333v-16h21.333v16h-11.316zM9.333 17.334v-2.667h9.333v2.667h-9.333zM9.333 9.334v2.667h12v-2.667h-12z"></path>
</symbol>
<symbol id="icon-data" viewBox="0 0 32 32">
<path d="M9.904 6.857v-1.524h12.19v1.524h3.048v-1.524h3.048v4.571h-24.381v-4.571h3.048v1.524h3.048zM28.19 12.953v15.238h-24.381v-15.238h24.381zM22.095 2.286h-12.19v-1.524h-3.048v1.524h-3.048c-1.683 0-3.048 1.364-3.048 3.048v22.857c0 1.683 1.364 3.048 3.048 3.048h24.381c1.683 0 3.048-1.364 3.048-3.048v-22.857c0-1.683-1.364-3.048-3.048-3.048h-3.048v-1.524h-3.048v1.524zM11.428 19.048v-3.048h-3.048v3.048h3.048zM14.475 19.048v-3.048h3.048v3.048h-3.048zM20.571 19.048h3.048v-3.048h-3.048v3.048zM8.38 25.143v-3.048h3.048v3.048h-3.048zM17.523 25.143v-3.048h-3.048v3.048h3.048z"></path>
</symbol>
<symbol id="icon-link" viewBox="0 0 32 32">
<path d="M10.613 14.922l-4.311 4.31c-1.785 1.785-1.785 4.68 0 6.465s4.68 1.785 6.465 0l4.311-4.31 2.156 2.156-4.311 4.311c-2.975 2.975-7.8 2.974-10.775-0.002s-2.975-7.799 0-10.774l4.31-4.311 2.154 2.154zM17.078 4.149c2.975-2.975 7.8-2.977 10.775-0.002s2.976 7.802 0 10.777l-4.309 4.309-2.156-2.156 4.309-4.309c1.785-1.785 1.785-4.68 0-6.465s-4.68-1.785-6.465 0l-4.309 4.309-2.154-2.154 4.309-4.309zM22.467 11.69l-10.775 10.775-2.154-2.154 10.775-10.775 2.154 2.154z"></path>
</symbol>
<symbol id="icon-menu" viewBox="0 0 46 32">
<path d="M45.714 4.571v-4.571h-45.714v4.571h45.714zM45.714 13.714v4.571h-45.714v-4.571h45.714zM45.714 27.429v4.571h-45.714v-4.571h45.714z"></path>
</symbol>
<symbol id="icon-plus" viewBox="0 0 32 32">
<path d="M17.6 14.4h14.4v3.2h-14.4v14.4h-3.2v-14.4h-14.4v-3.2h14.4v-14.4h3.2v14.4z"></path>
</symbol>
<symbol id="icon-results" viewBox="0 0 43 32">
<path d="M5.334 0h32c1.964 0 3.556 1.592 3.556 3.556v24.889c0 1.963-1.592 3.555-3.556 3.555h-32c-1.964 0-3.556-1.592-3.556-3.555v-24.889c0-1.964 1.592-3.556 3.556-3.556zM5.334 3.556v24.889h32v-24.889h-32zM12.445 24.889h3.556v-10.667h-3.556v10.667zM23.112 24.889h-3.556v-17.778h3.556v17.778zM26.667 24.889h3.556v-12.444h-3.556v12.444z"></path>
</symbol>
<symbol id="icon-star" viewBox="0 0 34 32">
<path d="M17.067 0l5.517 9.473 10.714 2.32-7.304 8.175 1.104 10.907-10.032-4.42-10.032 4.42 1.104-10.907-7.304-8.175 10.714-2.32 5.517-9.473z"></path>
</symbol>
</defs>
</svg>
