<svg aria-hidden="true" style="position: absolute; width: 0; height: 0; overflow: hidden;" version="1.1" xmlns="http://www.w3.org/2000/svg" xmlns:xlink="http://www.w3.org/1999/xlink">
<defs>
<symbol id="icon-comment" viewBox="0 0 32 32">
<path d="M7.999 29.073l8.116-5.072h10.551c1.473 0 2.667-1.194 2.667-2.667v-16c0-1.473-1.194-2.667-2.667-2.667h-21.333c-1.473 0-2.667 1.194-2.667 2.667v16c0 1.473 1.194 2.667 2.667 2.667h2.667v5.072zM15.35 21.334l-4.684 2.928v-2.928h-5.333v-16h21.333v16h-11.316zM9.333 17.334v-2.667h9.333v2.667h-9.333zM9.333 9.334v2.667h12v-2.667h-12z"></path>
</symbol>
<symbol id="icon-data" viewBox="0 0 32 32">
<path d="M9.904 6.857v-1.524h12.19v1.524h3.048v-1.524h3.048v4.571h-24.381v-4.571h3.048v1.524h3.048zM28.19 12.953v15.238h-24.381v-15.238h24.381zM22.095 2.286h-12.19v-1.524h-3.048v1.524h-3.048c-1.683 0-3.048 1.364-3.048 3.048v22.857c0 1.683 1.364 3.048 3.048 3.048h24.381c1.683 0 3.048-1.364 3.048-3.048v-22.857c0-1.683-1.364-3.048-3.048-3.048h-3.048v-1.524h-3.048v1.524zM11.428 19.048v-3.048h-3.048v3.048h3.048zM14.475 19.048v-3.048h3.048v3.048h-3.048zM20.571 19.048h3.048v-3.048h-3.048v3.048zM8.38 25.143v-3.048h3.048v3.048h-3.048zM17.523 25.143v-3.048h-3.048v3.048h3.048z"></path>
</symbol>
<symbol id="icon-link" viewBox="0 0 32 32">
<path d="M10.613 14.922l-4.311 4.31c-1.785 1.785-1.785 4.68 0 6.465s4.68 1.785 6.465 0l4.311-4.31 2.156 2.156-4.311 4.311c-2.975 2.975-7.8 2.974-10.775-0.002s-2.975-7.799 0-10.774l4.31-4.311 2.154 2.154zM17.078 4.149c2.975-2.975 7.8-2.977 10.775-0.002s2.976 7.802 0 10.777l-4.309 4.309-2.156-2.156 4.309-4.309c1.785-1.785 1.785-4.68 0-6.465s-4.68-1.785-6.465 0l-4.309 4.309-2.154-2.154 4.309-4.309zM22.467 11.69l-10.775 10.775-2.154-2.154 10.775-10.775 2.154 2.154z"></path>
</symbol>
<symbol id="icon-menu" viewBox="0 0 46 32">
<path d="M45.714 4.571v-4.571h-45.714v4.571h45.714zM45.714 13.714v4.571h-45.714v-4.571h45.714zM45.714 27.429v4.571h-45.714v-4.571h45.714z"></path>
</symbol>
<symbol id="icon-plus" viewBox="0 0 32 32">
<path d="M17.6 14.4h14.4v3.2h-14.4v14.4h-3.2v-14.4h-14.4v-3.2h14.4v-14.4h3.2v14.4z"></path>
</symbol>
<symbol id="icon-results" viewBox="0 0 43 32">
<path d="M5.334 0h32c1.964 0 3.556 1.592 3.556 3.556v24.889c0 1.963-1.592 3.555-3.556 3.555h-32c-1.964 0-3.556-1.592-3.556-3.555v-24.889c0-1.964 1.592-3.556 3.556-3.556zM5.334 3.556v24.889h32v-24.889h-32zM12.445 24.889h3.556v-10.667h-3.556v10.667zM23.112 24.889h-3.556v-17.778h3.556v17.778zM26.667 24.889h3.556v-12.444h-3.556v12.444z"></path>
</symbol>
<symbol id="icon-star" viewBox="0 0 34 32">
<path d="M17.067 0l5.517 9.473 10.714 2.32-7.304 8.175 1.104 10.907-10.032-4.42-10.032 4.42 1.104-10.907-7.304-8.175 10.714-2.32 5.517-9.473z"></path>
</symbol>
<symbol id="icon-completed" viewBox="0 0 32 32">
<path d="M15.999 1.333c8.1 0 14.666 6.566 14.666 14.666s-6.566 14.666-14.666 14.666c-8.1-0-14.666-6.566-14.666-14.666s6.566-14.666 14.666-14.666zM15.999 3.999c-6.627 0-12 5.373-12 12s5.373 12 12 12c6.627 0 12-5.373 12-12s-5.373-12-12-12zM22.277 12.942l-8.943 8.943-4.943-4.943 1.887-1.885 3.057 3.057 7.057-7.057 1.887 1.885z"></path>
</symbol>
<symbol id="icon-profile" viewBox="0 0 32 32">
<path d="M15.999 1.333c8.1 0 14.666 6.566 14.666 14.666s-6.566 14.666-14.666 14.666c-8.1-0-14.666-6.566-14.666-14.666s6.566-14.666 14.666-14.666zM15.999 22.667c-4.756 0-7.558 0.915-7.951 2.316 2.117 1.875 4.9 3.015 7.951 3.016s5.832-1.141 7.949-3.016c-0.394-1.401-3.194-2.316-7.949-2.316zM15.999 3.999c-6.627 0-12 5.373-12 12 0 2.538 0.792 4.891 2.137 6.83 1.502-1.98 5.027-2.83 9.863-2.83s8.361 0.851 9.863 2.83c1.345-1.939 2.137-4.292 2.137-6.83-0-6.627-5.373-12-12-12zM15.999 7.999c3.219 0 5.334 2.562 5.334 5.6 0 4.373-2.376 6.4-5.334 6.4-2.985-0-5.334-2.097-5.334-6.666 0-2.992 2.107-5.334 5.334-5.334zM15.999 10.665c-1.688 0-2.666 1.090-2.666 2.668 0 3.025 1.091 4 2.666 4 1.57 0 2.666-0.937 2.666-3.734-0-1.666-1.045-2.934-2.666-2.934z"></path>
</symbol>
<symbol id="icon-manage" viewBox="0 0 32 32">
<path d="M11.999 4c1.493 0 2.444 0.634 3.398 1.838 0.064 0.080 0.348 0.45 0.418 0.537 0.209 0.259 0.253 0.29 0.188 0.291h9.33c1.473 0 2.666 1.195 2.666 2.668v1.332l0.274 0.014c1.345 0.137 2.394 1.274 2.394 2.654l-0.033 0.289-2.639 11.881c-0.088 1.393-1.247 2.496-2.662 2.496l-21.605-0.014c-1.255-0.127-2.254-1.125-2.381-2.381l-0.014-0.271v-18.668c0-1.472 1.194-2.666 2.666-2.666h8zM6.634 13.623l-2.602 11.711h21.301l0.031-0.289 2.603-11.711h-21.254c-0.021 0.066-0.049 0.162-0.080 0.289zM3.999 13.188l0.039-0.174c0.375-1.519 1.073-2.348 2.629-2.348h18.666v-1.332h-9.34c-0.957-0.005-1.582-0.454-2.252-1.285-0.093-0.115-0.388-0.497-0.434-0.555-0.499-0.629-0.796-0.828-1.309-0.828h-8v6.521z"></path>
</symbol>
<symbol id="icon-trash" viewBox="0 0 32 32">
<path d="M20.001 1.333c1.472 0 2.666 1.194 2.666 2.666v1.334h4c1.472 0 2.668 1.194 2.668 2.666v2.666c0 1.473-1.196 2.668-2.668 2.668h-0.106l-1.226 14.666c0 1.473-1.196 2.666-2.668 2.666h-13.332c-1.472 0-2.666-1.193-2.662-2.555l-1.232-14.777h-0.105c-1.473 0-2.668-1.195-2.668-2.668v-2.666c0-1.472 1.195-2.666 2.668-2.666h4v-1.334c0-1.472 1.193-2.666 2.666-2.666h8zM9.335 27.999h13.332l0.006-0.111 1.213-14.555h-15.769l1.219 14.666zM5.335 10.665h21.332v-2.666h-21.332v2.666zM12.001 5.333h8v-1.334h-8v1.334z"></path>
</symbol>
<symbol id="icon-unmoderated" viewBox="0 0 32 32">
<path d="M16.001 0.762c8.415 0 15.239 6.823 15.239 15.239-0 2.627-0.668 5.161-1.918 7.404l0.538 6.456-6.455-0.538c-2.243 1.249-4.777 1.917-7.404 1.918-8.416 0-15.238-6.824-15.239-15.239s6.823-15.239 15.239-15.239zM16.001 3.811c-6.733 0-12.19 5.457-12.19 12.19s5.457 12.19 12.19 12.19c2.242-0 4.392-0.603 6.27-1.732l0.422-0.254 3.83 0.319-0.319-3.83 0.255-0.422c1.128-1.878 1.732-4.028 1.732-6.27 0-6.732-5.458-12.189-12.19-12.19zM16.001 20.57c0.842 0 1.524 0.681 1.525 1.522s-0.683 1.524-1.525 1.524c-0.842 0-1.525-0.683-1.525-1.524s0.683-1.522 1.525-1.522zM16.001 8.381c2.524 0 4.571 2.047 4.571 4.571 0 1.584-0.815 3.032-2.127 3.864-0.385 0.244-0.432 0.276-0.585 0.397-0.25 0.198-0.337 0.323-0.337 0.31v1.525h-3.047v-1.525c0-1.123 0.583-1.98 1.489-2.699 0.273-0.216 0.355-0.27 0.848-0.583 0.44-0.279 0.71-0.761 0.71-1.29-0-0.841-0.681-1.522-1.522-1.522s-1.524 0.681-1.525 1.522h-3.047c0-2.524 2.047-4.571 4.571-4.571z"></path>
</symbol>
<symbol id="icon-my-quizzes" viewBox="0 0 32 32">
<path d="M29.292 10.667h-11.917c-0.365 0-0.714 0.14-0.972 0.391s-0.403 0.589-0.403 0.943c0 0.354 0.145 0.693 0.403 0.943s0.608 0.391 0.972 0.391h11.917c0.365 0 0.714-0.14 0.972-0.391s0.403-0.589 0.403-0.943-0.145-0.693-0.403-0.943c-0.258-0.25-0.608-0.391-0.972-0.391z"></path>
<path d="M29.227 2.667h-9.12c-0.382 0-0.748 0.14-1.018 0.391s-0.422 0.589-0.422 0.943c0 0.354 0.152 0.693 0.422 0.943s0.636 0.391 1.018 0.391h9.12c0.382 0 0.748-0.14 1.018-0.391s0.422-0.589 0.422-0.943c0-0.354-0.152-0.693-0.422-0.943s-0.636-0.391-1.018-0.391z"></path>
<path d="M14.581 18.667h-11.828c-0.376 0-0.737 0.14-1.004 0.391s-0.416 0.589-0.416 0.943c0 0.354 0.15 0.693 0.416 0.943s0.627 0.39 1.004 0.39h11.828c0.376 0 0.737-0.14 1.004-0.39s0.416-0.589 0.416-0.943c0-0.354-0.15-0.693-0.416-0.943s-0.627-0.391-1.004-0.391z"></path>
<path d="M14.581 29.334c0.376 0 0.737-0.14 1.004-0.39s0.416-0.589 0.416-0.943-0.15-0.693-0.416-0.943c-0.266-0.25-0.627-0.391-1.004-0.391h-11.828c-0.376 0-0.737 0.14-1.004 0.391s-0.416 0.589-0.416 0.943 0.15 0.693 0.416 0.943c0.266 0.25 0.627 0.39 1.004 0.39h11.828z"></path>
<path d="M20.218 28.664c0.118 0.183 0.275 0.337 0.46 0.452s0.394 0.186 0.611 0.209c0.217 0.023 0.436-0.002 0.641-0.075s0.392-0.19 0.546-0.344l2.855-2.854 2.855 2.849c0.151 0.151 0.334 0.268 0.535 0.341s0.416 0.101 0.629 0.081c0.213-0.019 0.42-0.085 0.604-0.194s0.343-0.256 0.464-0.432c0.191-0.301 0.271-0.66 0.226-1.014s-0.213-0.681-0.474-0.924l-2.777-2.762 2.816-2.81c0.246-0.235 0.404-0.547 0.446-0.884s-0.033-0.679-0.213-0.967c-0.118-0.183-0.275-0.337-0.46-0.452s-0.394-0.186-0.611-0.209c-0.217-0.023-0.436 0.002-0.641 0.075s-0.392 0.19-0.546 0.344l-2.855 2.849-2.855-2.849c-0.151-0.151-0.334-0.268-0.535-0.341s-0.416-0.101-0.629-0.081-0.42 0.086-0.604 0.194c-0.185 0.108-0.343 0.256-0.464 0.432-0.191 0.301-0.271 0.66-0.226 1.014s0.213 0.681 0.474 0.925l2.782 2.762-2.796 2.81c-0.251 0.232-0.414 0.544-0.461 0.882s0.025 0.682 0.204 0.974z"></path>
<path d="M1.731 9.488l2.612 2.959c0.502 0.568 1.182 0.887 1.891 0.887s1.39-0.319 1.891-0.887l6.069-6.874c0.146-0.154 0.262-0.339 0.343-0.545s0.124-0.428 0.128-0.653c0.004-0.225-0.033-0.449-0.108-0.658s-0.185-0.399-0.326-0.558c-0.141-0.159-0.308-0.285-0.493-0.369s-0.382-0.126-0.581-0.122c-0.199 0.004-0.395 0.053-0.577 0.145s-0.345 0.224-0.481 0.389l-5.867 6.645-2.41-2.73c-0.281-0.296-0.652-0.458-1.036-0.45s-0.75 0.184-1.021 0.491c-0.271 0.307-0.427 0.722-0.434 1.157s0.136 0.855 0.397 1.174z"></path>
</symbol>
<symbol id="icon-grid-view" viewBox="0 0 32 32">
<path d="M27.852 1.185c1.636 0 2.963 1.327 2.963 2.963v23.704c0 1.636-1.327 2.963-2.963 2.963h-23.704c-1.636 0-2.963-1.327-2.963-2.963v-23.704c0-1.636 1.327-2.963 2.963-2.963h23.704zM4.148 27.852h10.37v-10.37h-10.37v10.37zM17.482 27.852h10.37v-10.37h-10.37v10.37zM17.482 14.518h10.37v-10.37h-10.37v10.37zM14.519 4.148h-10.37v10.37h10.37v-10.37z"></path>
</symbol>
<symbol id="icon-view_list" viewBox="0 0 24 24">
<path d="M9 5.016h12v3.984h-12v-3.984zM9 18.984v-3.984h12v3.984h-12zM9 14.016v-4.031h12v4.031h-12zM3.984 9v-3.984h4.031v3.984h-4.031zM3.984 18.984v-3.984h4.031v3.984h-4.031zM3.984 14.016v-4.031h4.031v4.031h-4.031z"></path>
</symbol>
<symbol id="icon-arrow" viewBox="0 0 53 32">
<path d="M26.667 10.209l-19.448 19.448-3.771-3.771 23.219-23.219 23.219 23.219-3.771 3.771-19.448-19.448z"></path>
</symbol>
</defs>
</svg>
